<svg xmlns="http://www.w3.org/2000/svg" width="94" height="62" viewBox="0 0 94 62" xmlns:xlink="http://www.w3.org/1999/xlink"><defs><path id="a" d="M23.72 5.834a3.5 3.5 0 1 0-6.372 0L0 25.218h41.067L23.719 5.834z"/><mask id="b" width="41.067" height="24.335" x="0" y="0" fill="#fff"><use xlink:href="#a"/></mask></defs><g fill="none" fill-rule="evenodd"><path fill="#000" d="M2.5 59.997c0 .274.229.503.507.503h87.986a.503.503 0 0 0 .507-.503V26.003a.508.508 0 0 0-.507-.503H3.007a.503.503 0 0 0-.507.503v33.994zM3.007 24h87.986C92.1 24 93 24.902 93 26.003v33.994A2.003 2.003 0 0 1 90.993 62H3.007A2.008 2.008 0 0 1 1 59.997V26.003C1 24.897 1.896 24 3.007 24z"/><g transform="translate(27)"><use stroke="#2A2A2A" stroke-width="3" mask="url(#b)" xlink:href="#a"/><circle cx="20.533" cy="4.383" r="1.546" fill="#2A2A2A"/></g><path fill="#000" d="M7.588 42.752c0 2.592 1.884 4.392 4.164 4.392 1.68 0 2.604-1.032 2.604-1.032h.024s-.012.18-.012.36V47h1.044v-4.26h-2.46v1.032h1.38v1.224s-.936 1.056-2.4 1.056c-1.776 0-3.12-1.356-3.12-3.324 0-1.812 1.2-3.264 3.192-3.264 1.44 0 2.388.828 2.388.828l.6-.888s-1.056-1.02-3.084-1.02c-2.472 0-4.32 1.92-4.32 4.368zM16.772 47h5.124v-1.032H17.96v-2.724h3.036v-1.032H17.96V39.56h3.732v-1.032h-4.92V47zm5.728-.972s1.008 1.116 2.808 1.116c1.68 0 2.688-1.08 2.688-2.388 0-2.748-4.104-2.28-4.104-4.032 0-.672.636-1.236 1.536-1.236 1.08 0 1.86.732 1.86.732l.54-.984s-.828-.852-2.4-.852c-1.596 0-2.736 1.044-2.736 2.364 0 2.604 4.104 2.208 4.104 4.044 0 .804-.672 1.248-1.464 1.248-1.26 0-2.16-.912-2.16-.912l-.672.9zm6.124-3.312c0 2.484 1.788 4.428 4.332 4.428 2.124 0 3.288-1.344 3.288-1.344l-.636-.852s-1.02 1.104-2.616 1.104c-1.884 0-3.144-1.536-3.144-3.348 0-1.8 1.236-3.24 3.132-3.24 1.464 0 2.448.924 2.448.924l.588-.888s-1.044-1.116-3.084-1.116c-2.46 0-4.308 1.872-4.308 4.332zM37.364 47h1.188v-3.72h4.392V47h1.188v-8.472h-1.188v3.72h-4.392v-3.72h-1.188V47zm8.572 0h4.98v-1.032h-3.792v-7.44h-1.188V47zm5.056-4.296c0 2.496 1.908 4.44 4.356 4.44s4.344-1.944 4.344-4.44c0-2.436-1.896-4.32-4.344-4.32-2.448 0-4.356 1.884-4.356 4.32zm1.224 0c0-1.848 1.404-3.24 3.132-3.24 1.728 0 3.12 1.392 3.12 3.24 0 1.908-1.392 3.348-3.12 3.348-1.728 0-3.132-1.44-3.132-3.348zm8.056 3.324s1.008 1.116 2.808 1.116c1.68 0 2.688-1.08 2.688-2.388 0-2.748-4.104-2.28-4.104-4.032 0-.672.636-1.236 1.536-1.236 1.08 0 1.86.732 1.86.732l.54-.984s-.828-.852-2.4-.852c-1.596 0-2.736 1.044-2.736 2.364 0 2.604 4.104 2.208 4.104 4.044 0 .804-.672 1.248-1.464 1.248-1.26 0-2.16-.912-2.16-.912l-.672.9zm6.052 0s1.008 1.116 2.808 1.116c1.68 0 2.688-1.08 2.688-2.388 0-2.748-4.104-2.28-4.104-4.032 0-.672.636-1.236 1.536-1.236 1.08 0 1.86.732 1.86.732l.54-.984s-.828-.852-2.4-.852c-1.596 0-2.736 1.044-2.736 2.364 0 2.604 4.104 2.208 4.104 4.044 0 .804-.672 1.248-1.464 1.248-1.26 0-2.16-.912-2.16-.912l-.672.9zm6.7.972h5.124v-1.032h-3.936v-2.724h3.036v-1.032h-3.036V39.56h3.732v-1.032h-4.92V47zm6.376 0h1.188v-5.496c0-.48-.084-1.236-.084-1.236h.024s.396.768.708 1.236L85.016 47h1.164v-8.472h-1.188v5.508c0 .468.084 1.224.084 1.224h-.024s-.396-.768-.708-1.224l-3.768-5.508H79.4V47z"/></g></svg>